<svg xmlns="http://www.w3.org/2000/svg" xmlns:xlink="http://www.w3.org/1999/xlink" version="1.1" class="marks" width="523" height="377" viewBox="0 0 523 377"><rect width="523" height="377" fill="white"/><g fill="none" stroke-miterlimit="10" transform="translate(58,27)"><g class="mark-group role-frame root" role="graphics-object" aria-roledescription="group mark container"><g transform="translate(0,0)"><path class="background" aria-hidden="true" d="M0.5,0.5h460v300h-460Z" stroke="#ddd"/><g><g class="mark-group role-axis" aria-hidden="true"><g transform="translate(0.5,0.5)"><path class="background" aria-hidden="true" d="M0,0h0v0h0Z" pointer-events="none"/><g><g class="mark-rule role-axis-grid" pointer-events="none"><line transform="translate(0,300)" x2="460" y2="0" stroke="#ddd" stroke-width="1" opacity="1"/><line transform="translate(0,263)" x2="460" y2="0" stroke="#ddd" stroke-width="1" opacity="1"/><line transform="translate(0,225)" x2="460" y2="0" stroke="#ddd" stroke-width="1" opacity="1"/><line transform="translate(0,188)" x2="460" y2="0" stroke="#ddd" stroke-width="1" opacity="1"/><line transform="translate(0,150)" x2="460" y2="0" stroke="#ddd" stroke-width="1" opacity="1"/><line transform="translate(0,113)" x2="460" y2="0" stroke="#ddd" stroke-width="1" opacity="1"/><line transform="translate(0,75)" x2="460" y2="0" stroke="#ddd" stroke-width="1" opacity="1"/><line transform="translate(0,38)" x2="460" y2="0" stroke="#ddd" stroke-width="1" opacity="1"/><line transform="translate(0,0)" x2="460" y2="0" stroke="#ddd" stroke-width="1" opacity="1"/></g></g><path class="foreground" aria-hidden="true" d="" pointer-events="none" display="none"/></g></g><g class="mark-group role-axis" role="graphics-symbol" aria-roledescription="axis" aria-label="X-axis titled 'Year' for a discrete scale with 23 values: 2000, 2001, 2002, 2003, 2004, ending with 2022"><g transform="translate(0.5,300.5)"><path class="background" aria-hidden="true" d="M0,0h0v0h0Z" pointer-events="none"/><g><g class="mark-rule role-axis-tick" pointer-events="none"><line transform="translate(10,0)" x2="0" y2="5" stroke="#888" stroke-width="1" opacity="1"/><line transform="translate(30,0)" x2="0" y2="5" stroke="#888" stroke-width="1" opacity="1"/><line transform="translate(50,0)" x2="0" y2="5" stroke="#888" stroke-width="1" opacity="1"/><line transform="translate(70,0)" x2="0" y2="5" stroke="#888" stroke-width="1" opacity="1"/><line transform="translate(90,0)" x2="0" y2="5" stroke="#888" stroke-width="1" opacity="1"/><line transform="translate(110,0)" x2="0" y2="5" stroke="#888" stroke-width="1" opacity="1"/><line transform="translate(130,0)" x2="0" y2="5" stroke="#888" stroke-width="1" opacity="1"/><line transform="translate(150,0)" x2="0" y2="5" stroke="#888" stroke-width="1" opacity="1"/><line transform="translate(170,0)" x2="0" y2="5" stroke="#888" stroke-width="1" opacity="1"/><line transform="translate(190,0)" x2="0" y2="5" stroke="#888" stroke-width="1" opacity="1"/><line transform="translate(210,0)" x2="0" y2="5" stroke="#888" stroke-width="1" opacity="1"/><line transform="translate(230,0)" x2="0" y2="5" stroke="#888" stroke-width="1" opacity="1"/><line transform="translate(250,0)" x2="0" y2="5" stroke="#888" stroke-width="1" opacity="1"/><line transform="translate(270,0)" x2="0" y2="5" stroke="#888" stroke-width="1" opacity="1"/><line transform="translate(290,0)" x2="0" y2="5" stroke="#888" stroke-width="1" opacity="1"/><line transform="translate(310,0)" x2="0" y2="5" stroke="#888" stroke-width="1" opacity="1"/><line transform="translate(330,0)" x2="0" y2="5" stroke="#888" stroke-width="1" opacity="1"/><line transform="translate(350,0)" x2="0" y2="5" stroke="#888" stroke-width="1" opacity="1"/><line transform="translate(370,0)" x2="0" y2="5" stroke="#888" stroke-width="1" opacity="1"/><line transform="translate(390,0)" x2="0" y2="5" stroke="#888" stroke-width="1" opacity="1"/><line transform="translate(410,0)" x2="0" y2="5" stroke="#888" stroke-width="1" opacity="1"/><line transform="translate(430,0)" x2="0" y2="5" stroke="#888" stroke-width="1" opacity="1"/><line transform="translate(450,0)" x2="0" y2="5" stroke="#888" stroke-width="1" opacity="1"/></g><g class="mark-text role-axis-label" pointer-events="none"><text text-anchor="end" transform="translate(9.5,7) rotate(270) translate(0,3)" font-family="sans-serif" font-size="10px" fill="#000" opacity="1">2000</text><text text-anchor="end" transform="translate(29.5,7) rotate(270) translate(0,3)" font-family="sans-serif" font-size="10px" fill="#000" opacity="1">2001</text><text text-anchor="end" transform="translate(49.5,7) rotate(270) translate(0,3)" font-family="sans-serif" font-size="10px" fill="#000" opacity="1">2002</text><text text-anchor="end" transform="translate(69.5,7) rotate(270) translate(0,3)" font-family="sans-serif" font-size="10px" fill="#000" opacity="1">2003</text><text text-anchor="end" transform="translate(89.5,7) rotate(270) translate(0,3)" font-family="sans-serif" font-size="10px" fill="#000" opacity="1">2004</text><text text-anchor="end" transform="translate(109.5,7) rotate(270) translate(0,3)" font-family="sans-serif" font-size="10px" fill="#000" opacity="1">2005</text><text text-anchor="end" transform="translate(129.5,7) rotate(270) translate(0,3)" font-family="sans-serif" font-size="10px" fill="#000" opacity="1">2006</text><text text-anchor="end" transform="translate(149.5,7) rotate(270) translate(0,3)" font-family="sans-serif" font-size="10px" fill="#000" opacity="1">2007</text><text text-anchor="end" transform="translate(169.5,7) rotate(270) translate(0,3)" font-family="sans-serif" font-size="10px" fill="#000" opacity="1">2008</text><text text-anchor="end" transform="translate(189.5,7) rotate(270) translate(0,3)" font-family="sans-serif" font-size="10px" fill="#000" opacity="1">2009</text><text text-anchor="end" transform="translate(209.5,7) rotate(270) translate(0,3)" font-family="sans-serif" font-size="10px" fill="#000" opacity="1">2010</text><text text-anchor="end" transform="translate(229.5,7) rotate(270) translate(0,3)" font-family="sans-serif" font-size="10px" fill="#000" opacity="1">2011</text><text text-anchor="end" transform="translate(249.5,7) rotate(270) translate(0,3)" font-family="sans-serif" font-size="10px" fill="#000" opacity="1">2012</text><text text-anchor="end" transform="translate(269.5,7) rotate(270) translate(0,3)" font-family="sans-serif" font-size="10px" fill="#000" opacity="1">2013</text><text text-anchor="end" transform="translate(289.5,7) rotate(270) translate(0,3)" font-family="sans-serif" font-size="10px" fill="#000" opacity="1">2014</text><text text-anchor="end" transform="translate(309.5,7) rotate(270) translate(0,3)" font-family="sans-serif" font-size="10px" fill="#000" opacity="1">2015</text><text text-anchor="end" transform="translate(329.5,7) rotate(270) translate(0,3)" font-family="sans-serif" font-size="10px" fill="#000" opacity="1">2016</text><text text-anchor="end" transform="translate(349.5,7) rotate(270) translate(0,3)" font-family="sans-serif" font-size="10px" fill="#000" opacity="1">2017</text><text text-anchor="end" transform="translate(369.5,7) rotate(270) translate(0,3)" font-family="sans-serif" font-size="10px" fill="#000" opacity="1">2018</text><text text-anchor="end" transform="translate(389.5,7) rotate(270) translate(0,3)" font-family="sans-serif" font-size="10px" fill="#000" opacity="1">2019</text><text text-anchor="end" transform="translate(409.5,7) rotate(270) translate(0,3)" font-family="sans-serif" font-size="10px" fill="#000" opacity="1">2020</text><text text-anchor="end" transform="translate(429.5,7) rotate(270) translate(0,3)" font-family="sans-serif" font-size="10px" fill="#000" opacity="1">2021</text><text text-anchor="end" transform="translate(449.5,7) rotate(270) translate(0,3)" font-family="sans-serif" font-size="10px" fill="#000" opacity="1">2022</text></g><g class="mark-rule role-axis-domain" pointer-events="none"><line transform="translate(0,0)" x2="460" y2="0" stroke="#888" stroke-width="1" opacity="1"/></g><g class="mark-text role-axis-title" pointer-events="none"><text text-anchor="middle" transform="translate(230,42.24609375)" font-family="sans-serif" font-size="11px" font-weight="bold" fill="#000" opacity="1">Year</text></g></g><path class="foreground" aria-hidden="true" d="" pointer-events="none" display="none"/></g></g><g class="mark-group role-axis" role="graphics-symbol" aria-roledescription="axis" aria-label="Y-axis titled 'Total CO2 Emissions (Mt)' for a linear scale with values from 0 to 40,000"><g transform="translate(0.5,0.5)"><path class="background" aria-hidden="true" d="M0,0h0v0h0Z" pointer-events="none"/><g><g class="mark-rule role-axis-tick" pointer-events="none"><line transform="translate(0,300)" x2="-5" y2="0" stroke="#888" stroke-width="1" opacity="1"/><line transform="translate(0,263)" x2="-5" y2="0" stroke="#888" stroke-width="1" opacity="1"/><line transform="translate(0,225)" x2="-5" y2="0" stroke="#888" stroke-width="1" opacity="1"/><line transform="translate(0,188)" x2="-5" y2="0" stroke="#888" stroke-width="1" opacity="1"/><line transform="translate(0,150)" x2="-5" y2="0" stroke="#888" stroke-width="1" opacity="1"/><line transform="translate(0,113)" x2="-5" y2="0" stroke="#888" stroke-width="1" opacity="1"/><line transform="translate(0,75)" x2="-5" y2="0" stroke="#888" stroke-width="1" opacity="1"/><line transform="translate(0,38)" x2="-5" y2="0" stroke="#888" stroke-width="1" opacity="1"/><line transform="translate(0,0)" x2="-5" y2="0" stroke="#888" stroke-width="1" opacity="1"/></g><g class="mark-text role-axis-label" pointer-events="none"><text text-anchor="end" transform="translate(-7,303)" font-family="sans-serif" font-size="10px" fill="#000" opacity="1">0</text><text text-anchor="end" transform="translate(-7,265.5)" font-family="sans-serif" font-size="10px" fill="#000" opacity="1">5,000</text><text text-anchor="end" transform="translate(-7,228)" font-family="sans-serif" font-size="10px" fill="#000" opacity="1">10,000</text><text text-anchor="end" transform="translate(-7,190.5)" font-family="sans-serif" font-size="10px" fill="#000" opacity="1">15,000</text><text text-anchor="end" transform="translate(-7,153)" font-family="sans-serif" font-size="10px" fill="#000" opacity="1">20,000</text><text text-anchor="end" transform="translate(-7,115.5)" font-family="sans-serif" font-size="10px" fill="#000" opacity="1">25,000</text><text text-anchor="end" transform="translate(-7,78)" font-family="sans-serif" font-size="10px" fill="#000" opacity="1">30,000</text><text text-anchor="end" transform="translate(-7,40.5)" font-family="sans-serif" font-size="10px" fill="#000" opacity="1">35,000</text><text text-anchor="end" transform="translate(-7,3)" font-family="sans-serif" font-size="10px" fill="#000" opacity="1">40,000</text></g><g class="mark-rule role-axis-domain" pointer-events="none"><line transform="translate(0,300)" x2="0" y2="-300" stroke="#888" stroke-width="1" opacity="1"/></g><g class="mark-text role-axis-title" pointer-events="none"><text text-anchor="middle" transform="translate(-41.5859375,150) rotate(-90) translate(0,-2)" font-family="sans-serif" font-size="11px" font-weight="bold" fill="#000" opacity="1">Total CO2 Emissions (Mt)</text></g></g><path class="foreground" aria-hidden="true" d="" pointer-events="none" display="none"/></g></g><g class="mark-rect role-mark layer_0_marks" role="graphics-object" aria-roledescription="rect mark container"><path aria-label="Year: 2000; Total CO2 Emissions (Mt): 2760.8719111" role="graphics-symbol" aria-roledescription="bar" d="M1,279.2934606667695h18v20.706539333230523h-18Z" fill="#a44a41"/><path aria-label="Year: 2000; Total CO2 Emissions (Mt): 20058.3354124" role="graphics-symbol" aria-roledescription="bar" d="M1,128.85594507391153h18v150.43751559285795h-18Z" fill="#a44a41"/><path aria-label="Year: 2001; Total CO2 Emissions (Mt): 2851.13197986" role="graphics-symbol" aria-roledescription="bar" d="M21,278.6165101510508h18v21.383489848949182h-18Z" fill="#a44a41"/><path aria-label="Year: 2001; Total CO2 Emissions (Mt): 20641.2731878" role="graphics-symbol" aria-roledescription="bar" d="M21,123.80696124260837h18v154.80954890844245h-18Z" fill="#a44a41"/><path aria-label="Year: 2002; Total CO2 Emissions (Mt): 2929.37147912" role="graphics-symbol" aria-roledescription="bar" d="M41,278.0297139065793h18v21.970286093420725h-18Z" fill="#a44a41"/><path aria-label="Year: 2002; Total CO2 Emissions (Mt): 20916.2393744" role="graphics-symbol" aria-roledescription="bar" d="M41,121.15791859888499h18v156.8717953076943h-18Z" fill="#a44a41"/><path aria-label="Year: 2003; Total CO2 Emissions (Mt): 3121.8517346" role="graphics-symbol" aria-roledescription="bar" d="M61,276.5861119905207h18v23.413888009479308h-18Z" fill="#a44a41"/><path aria-label="Year: 2003; Total CO2 Emissions (Mt): 22494.7466611" role="graphics-symbol" aria-roledescription="bar" d="M61,107.87551203214043h18v168.71059995838027h-18Z" fill="#a44a41"/><path aria-label="Year: 2004; Total CO2 Emissions (Mt): 3285.35510711" role="graphics-symbol" aria-roledescription="bar" d="M81,275.35983669667377h18v24.640163303326233h-18Z" fill="#a44a41"/><path aria-label="Year: 2004; Total CO2 Emissions (Mt): 23860.9569913" role="graphics-symbol" aria-roledescription="bar" d="M81,96.40265926217751h18v178.95717743449626h-18Z" fill="#a44a41"/><path aria-label="Year: 2005; Total CO2 Emissions (Mt): 3470.47557897" role="graphics-symbol" aria-roledescription="bar" d="M101,273.9714331577247h18v26.028566842275325h-18Z" fill="#a44a41"/><path aria-label="Year: 2005; Total CO2 Emissions (Mt): 25270.9497505" role="graphics-symbol" aria-roledescription="bar" d="M101,84.43931002885574h18v189.53212312886893h-18Z" fill="#a44a41"/><path aria-label="Year: 2006; Total CO2 Emissions (Mt): 3584.56213902" role="graphics-symbol" aria-roledescription="bar" d="M121,273.1157839573716h18v26.884216042628395h-18Z" fill="#a44a41"/><path aria-label="Year: 2006; Total CO2 Emissions (Mt): 25977.313226" role="graphics-symbol" aria-roledescription="bar" d="M121,78.28593476205367h18v194.82984919531793h-18Z" fill="#a44a41"/><path aria-label="Year: 2007; Total CO2 Emissions (Mt): 3677.59132294" role="graphics-symbol" aria-roledescription="bar" d="M141,272.41806507798077h18v27.58193492201923h-18Z" fill="#a44a41"/><path aria-label="Year: 2007; Total CO2 Emissions (Mt): 26688.9516646" role="graphics-symbol" aria-roledescription="bar" d="M141,72.25092759365162h18v200.16713748432915h-18Z" fill="#a44a41"/><path aria-label="Year: 2008; Total CO2 Emissions (Mt): 3798.94132844" role="graphics-symbol" aria-roledescription="bar" d="M161,271.50794003669756h18v28.492059963302438h-18Z" fill="#a44a41"/><path aria-label="Year: 2008; Total CO2 Emissions (Mt): 27484.4912914" role="graphics-symbol" aria-roledescription="bar" d="M161,65.37425535102915h18v206.1336846856684h-18Z" fill="#a44a41"/><path aria-label="Year: 2009; Total CO2 Emissions (Mt): 3806.34228075" role="graphics-symbol" aria-roledescription="bar" d="M181,271.4524328944109h18v28.54756710558911h-18Z" fill="#a44a41"/><path aria-label="Year: 2009; Total CO2 Emissions (Mt): 27817.2291983" role="graphics-symbol" aria-roledescription="bar" d="M181,62.8232139071345h18v208.62921898727637h-18Z" fill="#a44a41"/><path aria-label="Year: 2010; Total CO2 Emissions (Mt): 4025.58577513" role="graphics-symbol" aria-roledescription="bar" d="M201,269.80810668651065h18v30.191893313489345h-18Z" fill="#a44a41"/><path aria-label="Year: 2010; Total CO2 Emissions (Mt): 29185.148616" role="graphics-symbol" aria-roledescription="bar" d="M201,50.91949206663982h18v218.88861461987085h-18Z" fill="#a44a41"/><path aria-label="Year: 2011; Total CO2 Emissions (Mt): 4100.61832192" role="graphics-symbol" aria-roledescription="bar" d="M221,269.24536258556935h18v30.754637414430647h-18Z" fill="#a44a41"/><path aria-label="Year: 2011; Total CO2 Emissions (Mt): 29880.7075846" role="graphics-symbol" aria-roledescription="bar" d="M221,45.14005570071057h18v224.10530688485878h-18Z" fill="#a44a41"/><path aria-label="Year: 2012; Total CO2 Emissions (Mt): 4253.85521528" role="graphics-symbol" aria-roledescription="bar" d="M241,268.0960858854237h18v31.90391411457631h-18Z" fill="#a44a41"/><path aria-label="Year: 2012; Total CO2 Emissions (Mt): 31021.6437396" role="graphics-symbol" aria-roledescription="bar" d="M241,35.433757838539634h18v232.66232804688406h-18Z" fill="#a44a41"/><path aria-label="Year: 2013; Total CO2 Emissions (Mt): 4318.81713221" role="graphics-symbol" aria-roledescription="bar" d="M261,267.60887150845355h18v32.39112849154645h-18Z" fill="#a44a41"/><path aria-label="Year: 2013; Total CO2 Emissions (Mt): 31486.0304716" role="graphics-symbol" aria-roledescription="bar" d="M261,31.46364297171059h18v236.14522853674296h-18Z" fill="#a44a41"/><path aria-label="Year: 2014; Total CO2 Emissions (Mt): 4279.36587435" role="graphics-symbol" aria-roledescription="bar" d="M281,267.9047559423485h18v32.095244057651485h-18Z" fill="#a44a41"/><path aria-label="Year: 2014; Total CO2 Emissions (Mt): 31435.1074816" role="graphics-symbol" aria-roledescription="bar" d="M281,32.141449830194524h18v235.763306112154h-18Z" fill="#a44a41"/><path aria-label="Year: 2015; Total CO2 Emissions (Mt): 4312.70266429" role="graphics-symbol" aria-roledescription="bar" d="M301,267.65473001782175h18v32.34526998217825h-18Z" fill="#a44a41"/><path aria-label="Year: 2015; Total CO2 Emissions (Mt): 31500.8980944" role="graphics-symbol" aria-roledescription="bar" d="M301,31.39799430979895h18v236.2567357080228h-18Z" fill="#a44a41"/><path aria-label="Year: 2016; Total CO2 Emissions (Mt): 4182.75340942" role="graphics-symbol" aria-roledescription="bar" d="M321,268.62934942935203h18v31.370650570647967h-18Z" fill="#a44a41"/><path aria-label="Year: 2016; Total CO2 Emissions (Mt): 30457.4932904" role="graphics-symbol" aria-roledescription="bar" d="M321,40.19814975154572h18v228.43119967780632h-18Z" fill="#a44a41"/><path aria-label="Year: 2017; Total CO2 Emissions (Mt): 4284.67165318" role="graphics-symbol" aria-roledescription="bar" d="M341,267.8649626011642h18v32.13503739883578h-18Z" fill="#a44a41"/><path aria-label="Year: 2017; Total CO2 Emissions (Mt): 30692.1633992" role="graphics-symbol" aria-roledescription="bar" d="M341,37.673737106916974h18v230.19122549424725h-18Z" fill="#a44a41"/><path aria-label="Year: 2018; Total CO2 Emissions (Mt): 4389.3625212" role="graphics-symbol" aria-roledescription="bar" d="M361,267.0797810910038h18v32.92021890899622h-18Z" fill="#a44a41"/><path aria-label="Year: 2018; Total CO2 Emissions (Mt): 31342.5194455" role="graphics-symbol" aria-roledescription="bar" d="M361,32.010885249803h18v235.06889584120077h-18Z" fill="#a44a41"/><path aria-label="Year: 2019; Total CO2 Emissions (Mt): 4504.64351238" role="graphics-symbol" aria-roledescription="bar" d="M381,266.21517365718694h18v33.78482634281306h-18Z" fill="#a44a41"/><path aria-label="Year: 2019; Total CO2 Emissions (Mt): 31893.0010773" role="graphics-symbol" aria-roledescription="bar" d="M381,27.017665577769336h18v239.19750807941762h-18Z" fill="#a44a41"/><path aria-label="Year: 2020; Total CO2 Emissions (Mt): 4315.98094174" role="graphics-symbol" aria-roledescription="bar" d="M401,267.630142936961h18v32.36985706303898h-18Z" fill="#a44a41"/><path aria-label="Year: 2020; Total CO2 Emissions (Mt): 30610.1540563" role="graphics-symbol" aria-roledescription="bar" d="M401,38.053987514989075h18v229.57615542197195h-18Z" fill="#a44a41"/><path aria-label="Year: 2021; Total CO2 Emissions (Mt): 4479.15022787" role="graphics-symbol" aria-roledescription="bar" d="M421,266.40637329099127h18v33.59362670900873h-18Z" fill="#a44a41"/><path aria-label="Year: 2021; Total CO2 Emissions (Mt): 31646.4402757" role="graphics-symbol" aria-roledescription="bar" d="M421,29.05807122312162h18v237.34830206786964h-18Z" fill="#a44a41"/><path aria-label="Year: 2022; Total CO2 Emissions (Mt): 4627.95748732" role="graphics-symbol" aria-roledescription="bar" d="M441,265.29031884507685h18v34.709681154923146h-18Z" fill="#a44a41"/><path aria-label="Year: 2022; Total CO2 Emissions (Mt): 32931.2467812" role="graphics-symbol" aria-roledescription="bar" d="M441,18.305967986276915h18v246.98435085879993h-18Z" fill="#a44a41"/></g><g class="mark-line role-mark layer_1_marks" role="graphics-object" aria-roledescription="line mark container"><path aria-label="year: 2000; cumulative_avg: 22819.2073235" role="graphics-symbol" aria-roledescription="line mark" d="M10,128.856L30,126.331L50,124.607L70,120.424L90,115.62L110,110.423L130,105.832L150,101.634L170,97.605L190,94.127L210,90.199L230,86.444L250,82.52L270,78.874L290,75.758L310,72.986L330,71.057L350,69.202L370,67.245L390,65.233L410,63.939L430,62.354L450,60.439" stroke="#4c78a8" stroke-width="2"/></g><g class="mark-group role-title"><g transform="translate(230,-22)"><path class="background" aria-hidden="true" d="M0,0h0v0h0Z" pointer-events="none"/><g><g class="mark-text role-title-text" role="graphics-symbol" aria-roledescription="title" aria-label="Title text 'Annual CO2 Emissions'" pointer-events="none"><text text-anchor="middle" transform="translate(0,10)" font-family="sans-serif" font-size="13px" font-weight="bold" fill="#000" opacity="1">Annual CO2 Emissions</text></g></g><path class="foreground" aria-hidden="true" d="" pointer-events="none" display="none"/></g></g></g><path class="foreground" aria-hidden="true" d="" display="none"/></g></g></g></svg>